<svg width="20" height="20" viewBox="0 0 20 20" fill="none" xmlns="http://www.w3.org/2000/svg">
<path d="M15.55 12.275H12.5917M14.0667 10.8333V13.7917M18.025 12.2917C18.025 13.0333 17.8167 13.7333 17.45 14.3333C17.1012 14.9192 16.6057 15.4041 16.0124 15.7402C15.4192 16.0763 14.7485 16.252 14.0667 16.25C13.3852 16.2503 12.7152 16.0738 12.1222 15.7379C11.5292 15.402 11.0335 14.9181 10.6833 14.3333C10.3059 13.7193 10.1068 13.0124 10.1083 12.2917C10.1083 10.1083 11.8833 8.33334 14.0667 8.33334C16.25 8.33334 18.025 10.1083 18.025 12.2917Z" stroke="#E29438" stroke-width="1.25" stroke-miterlimit="10" stroke-linecap="round" stroke-linejoin="round"/>
<path d="M17.2416 3.34999V5.19999C17.2416 5.87499 16.8166 6.71666 16.4 7.14166L14.9333 8.43332C14.6494 8.36577 14.3585 8.33221 14.0666 8.33332C11.8833 8.33332 10.1083 10.1083 10.1083 12.2917C10.1083 13.0333 10.3166 13.7333 10.6833 14.3333C10.9916 14.85 11.4166 15.2917 11.9333 15.6083V15.8917C11.9333 16.4 11.6 17.075 11.175 17.325L9.99997 18.0833C8.9083 18.7583 7.39163 18 7.39163 16.65V12.1917C7.39163 11.6 7.04997 10.8417 6.71663 10.425L3.51663 7.05832C3.09997 6.63332 2.7583 5.87499 2.7583 5.37499V3.43332C2.7583 2.42499 3.51663 1.66666 4.44163 1.66666H15.5583C16.4833 1.66666 17.2416 2.42499 17.2416 3.34999Z" stroke="#E29438" stroke-width="1.25" stroke-miterlimit="10" stroke-linecap="round" stroke-linejoin="round"/>
</svg>
