<svg width="19" height="18" viewBox="0 0 19 18" fill="none" xmlns="http://www.w3.org/2000/svg">
<path d="M8 17.25C8 17.4489 7.921 17.6397 7.7803 17.7803C7.6397 17.921 7.4489 18 7.25 18H2C1.60218 18 1.22064 17.842 0.93934 17.5607C0.65804 17.2794 0.5 16.8978 0.5 16.5V1.5C0.5 1.10218 0.65804 0.72064 0.93934 0.43934C1.22064 0.15804 1.60218 0 2 0H7.25C7.4489 0 7.6397 0.0790201 7.7803 0.21967C7.921 0.36032 8 0.55109 8 0.75C8 0.94891 7.921 1.13968 7.7803 1.28033C7.6397 1.42098 7.4489 1.5 7.25 1.5H2V16.5H7.25C7.4489 16.5 7.6397 16.579 7.7803 16.7197C7.921 16.8603 8 17.0511 8 17.25ZM18.2806 8.4694L14.5306 4.71937C14.3899 4.57864 14.199 4.49958 14 4.49958C13.801 4.49958 13.6101 4.57864 13.4694 4.71937C13.3286 4.86011 13.2496 5.05098 13.2496 5.25C13.2496 5.44902 13.3286 5.63989 13.4694 5.78063L15.9397 8.25H7.25C7.0511 8.25 6.86032 8.329 6.71967 8.4697C6.57902 8.6103 6.5 8.8011 6.5 9C6.5 9.1989 6.57902 9.3897 6.71967 9.5303C6.86032 9.671 7.0511 9.75 7.25 9.75H15.9397L13.4694 12.2194C13.3286 12.3601 13.2496 12.551 13.2496 12.75C13.2496 12.949 13.3286 13.1399 13.4694 13.2806C13.6101 13.4214 13.801 13.5004 14 13.5004C14.199 13.5004 14.3899 13.4214 14.5306 13.2806L18.2806 9.5306C18.3504 9.461 18.4057 9.3783 18.4434 9.2872C18.4812 9.1962 18.5006 9.0986 18.5006 9C18.5006 8.9014 18.4812 8.8038 18.4434 8.7128C18.4057 8.6217 18.3504 8.539 18.2806 8.4694Z" fill="white"/>
</svg>
