<svg width="40" height="40" viewBox="0 0 40 40" fill="none" xmlns="http://www.w3.org/2000/svg">
<rect width="40" height="40" rx="8" fill="#0084FF"/>
<path d="M18.7516 25.3604V27.3904C18.7516 29.1104 17.1516 30.5004 15.1816 30.5004C13.2116 30.5004 11.6016 29.1104 11.6016 27.3904V25.3604C11.6016 27.0804 13.2016 28.3004 15.1816 28.3004C17.1516 28.3004 18.7516 27.0704 18.7516 25.3604Z" stroke="white" stroke-linecap="round" stroke-linejoin="round"/>
<path d="M18.7501 22.61C18.7501 23.11 18.6101 23.57 18.3701 23.97C17.7801 24.94 16.57 25.55 15.17 25.55C13.77 25.55 12.56 24.93 11.97 23.97C11.73 23.57 11.5901 23.11 11.5901 22.61C11.5901 21.75 11.9901 20.98 12.6301 20.42C13.2801 19.85 14.17 19.51 15.16 19.51C16.15 19.51 17.0401 19.86 17.6901 20.42C18.3501 20.97 18.7501 21.75 18.7501 22.61Z" stroke="white" stroke-width="1.5" stroke-linecap="round" stroke-linejoin="round"/>
<path d="M18.7516 22.61V25.36C18.7516 27.08 17.1516 28.3 15.1816 28.3C13.2116 28.3 11.6016 27.07 11.6016 25.36V22.61C11.6016 20.89 13.2016 19.5 15.1816 19.5C16.1716 19.5 17.0616 19.85 17.7116 20.41C18.3516 20.97 18.7516 21.75 18.7516 22.61Z" stroke="white" stroke-linecap="round" stroke-linejoin="round"/>
<path d="M30 19.47V21.53C30 22.08 29.56 22.53 29 22.55H27.0399C25.9599 22.55 24.97 21.76 24.88 20.68C24.82 20.05 25.0599 19.46 25.4799 19.05C25.8499 18.67 26.36 18.45 26.92 18.45H29C29.56 18.47 30 18.92 30 19.47Z" stroke="white" stroke-linecap="round" stroke-linejoin="round"/>
<path d="M10 19V17C10 14.28 11.64 12.38 14.19 12.06C14.45 12.02 14.72 12 15 12H24C24.26 12 24.51 12.01 24.75 12.05C27.33 12.35 29 14.26 29 17V18.45H26.92C26.36 18.45 25.85 18.67 25.48 19.05C25.06 19.46 24.82 20.05 24.88 20.68C24.97 21.76 25.96 22.55 27.04 22.55H29V24C29 27 27 29 24 29H21.5" stroke="white" stroke-linecap="round" stroke-linejoin="round"/>
</svg>
