<svg width="40" height="40" viewBox="0 0 40 40" fill="none" xmlns="http://www.w3.org/2000/svg">
<rect width="40" height="40" rx="8" fill="#0084FF"/>
<path d="M11.6667 28.3333H28.3334" stroke="white" stroke-width="1.25" stroke-miterlimit="10" stroke-linecap="round" stroke-linejoin="round"/>
<path d="M18.125 13.3333V28.3333H21.875V13.3333C21.875 12.4167 21.5 11.6667 20.375 11.6667H19.625C18.5 11.6667 18.125 12.4167 18.125 13.3333ZM12.5 18.3333V28.3333H15.8333V18.3333C15.8333 17.4167 15.5 16.6667 14.5 16.6667H13.8333C12.8333 16.6667 12.5 17.4167 12.5 18.3333ZM24.1667 22.5V28.3333H27.5V22.5C27.5 21.5833 27.1667 20.8333 26.1667 20.8333H25.5C24.5 20.8333 24.1667 21.5833 24.1667 22.5Z" stroke="white" stroke-width="1.25" stroke-linecap="round" stroke-linejoin="round"/>
</svg>
