<svg width="49" height="48" viewBox="0 0 49 48" fill="none" xmlns="http://www.w3.org/2000/svg">
<rect x="0.609985" width="48" height="48" rx="24" fill="#F06548"/>
<path d="M29.61 22H31.61C33.61 22 34.61 21 34.61 19V17C34.61 15 33.61 14 31.61 14H29.61C27.61 14 26.61 15 26.61 17V19C26.61 21 27.61 22 29.61 22ZM17.61 34H19.61C21.61 34 22.61 33 22.61 31V29C22.61 27 21.61 26 19.61 26H17.61C15.61 26 14.61 27 14.61 29V31C14.61 33 15.61 34 17.61 34ZM18.61 22C19.6709 22 20.6883 21.5786 21.4384 20.8284C22.1886 20.0783 22.61 19.0609 22.61 18C22.61 16.9391 22.1886 15.9217 21.4384 15.1716C20.6883 14.4214 19.6709 14 18.61 14C17.5491 14 16.5317 14.4214 15.7816 15.1716C15.0314 15.9217 14.61 16.9391 14.61 18C14.61 19.0609 15.0314 20.0783 15.7816 20.8284C16.5317 21.5786 17.5491 22 18.61 22ZM30.61 34C31.6709 34 32.6883 33.5786 33.4384 32.8284C34.1886 32.0783 34.61 31.0609 34.61 30C34.61 28.9391 34.1886 27.9217 33.4384 27.1716C32.6883 26.4214 31.6709 26 30.61 26C29.5491 26 28.5317 26.4214 27.7816 27.1716C27.0314 27.9217 26.61 28.9391 26.61 30C26.61 31.0609 27.0314 32.0783 27.7816 32.8284C28.5317 33.5786 29.5491 34 30.61 34Z" stroke="white" stroke-width="1.5" stroke-miterlimit="10" stroke-linecap="round" stroke-linejoin="round"/>
</svg>
