<svg width="49" height="48" viewBox="0 0 49 48" fill="none" xmlns="http://www.w3.org/2000/svg">
<rect x="0.0200195" width="48" height="48" rx="24" fill="#299CDB"/>
<path d="M34.6134 20.01V27.99C34.6134 29.2967 33.9134 30.51 32.7817 31.175L25.8517 35.1767C24.72 35.83 23.32 35.83 22.1767 35.1767L15.2467 31.175C14.6888 30.8515 14.2258 30.3869 13.9043 29.8278C13.5828 29.2688 13.414 28.6349 13.415 27.99V20.01C13.415 18.7033 14.115 17.49 15.2467 16.825L22.1767 12.8233C23.3084 12.17 24.7084 12.17 25.8517 12.8233L32.7817 16.825C33.9134 17.49 34.6134 18.6917 34.6134 20.01Z" stroke="white" stroke-width="1.75" stroke-linecap="round" stroke-linejoin="round"/>
<path d="M28.6867 29.4367C28.6867 27.3367 26.5983 25.6333 24.02 25.6333C21.4417 25.6333 19.3533 27.3367 19.3533 29.4367M24.02 22.8333C24.7409 22.8333 25.4324 22.5469 25.9422 22.0372C26.4519 21.5274 26.7383 20.8359 26.7383 20.115C26.7383 19.3941 26.4519 18.7026 25.9422 18.1928C25.4324 17.6831 24.7409 17.3967 24.02 17.3967C23.2991 17.3967 22.6076 17.6831 22.0978 18.1928C21.5881 18.7026 21.3017 19.3941 21.3017 20.115C21.3017 20.8359 21.5881 21.5274 22.0978 22.0372C22.6076 22.5469 23.2991 22.8333 24.02 22.8333Z" stroke="white" stroke-width="1.75" stroke-linecap="round" stroke-linejoin="round"/>
</svg>
