<svg width="40" height="40" viewBox="0 0 40 40" fill="none" xmlns="http://www.w3.org/2000/svg">
<rect width="40" height="40" rx="8" fill="#0084FF"/>
<path d="M23.6749 13.3333C25.2916 13.3333 26.5916 14.6417 26.5916 16.25C26.5916 17.825 25.3416 19.1083 23.7833 19.1667C23.7113 19.1583 23.6386 19.1583 23.5666 19.1667M25.2833 26.6667C25.8833 26.5417 26.4499 26.3 26.9166 25.9417C28.2166 24.9667 28.2166 23.3583 26.9166 22.3833C26.4583 22.0333 25.8999 21.8 25.3083 21.6667M17.6333 19.0583C17.5499 19.05 17.4499 19.05 17.3583 19.0583C16.4018 19.0259 15.4955 18.6224 14.8313 17.9333C14.1671 17.2442 13.7972 16.3237 13.7999 15.3667C13.7999 13.325 15.4499 11.6667 17.4999 11.6667C18.4801 11.649 19.4272 12.0214 20.1328 12.702C20.8384 13.3826 21.2448 14.3156 21.2624 15.2958C21.2801 16.276 20.9077 17.2231 20.2271 17.9287C19.5465 18.6343 18.6135 19.0407 17.6333 19.0583ZM13.4666 22.1333C11.4499 23.4833 11.4499 25.6833 13.4666 27.025C15.7583 28.5583 19.5166 28.5583 21.8083 27.025C23.8249 25.675 23.8249 23.475 21.8083 22.1333C19.5249 20.6083 15.7666 20.6083 13.4666 22.1333Z" stroke="white" stroke-width="1.25" stroke-linecap="round" stroke-linejoin="round"/>
</svg>
