<svg width="49" height="48" viewBox="0 0 49 48" fill="none" xmlns="http://www.w3.org/2000/svg">
<rect x="0.199951" width="48" height="48" rx="24" fill="#4B38B3"/>
<path d="M28.6099 16C30.5499 16 32.1099 17.57 32.1099 19.5C32.1099 21.39 30.6099 22.93 28.7399 23C28.6535 22.99 28.5663 22.99 28.4799 23M30.5399 32C31.2599 31.85 31.9399 31.56 32.4999 31.13C34.0599 29.96 34.0599 28.03 32.4999 26.86C31.9499 26.44 31.2799 26.16 30.5699 26M21.3599 22.87C21.2599 22.86 21.1399 22.86 21.0299 22.87C19.8821 22.831 18.7946 22.3468 17.9976 21.5199C17.2005 20.6931 16.7567 19.5884 16.7599 18.44C16.7599 15.99 18.7399 14 21.1999 14C22.3762 13.9788 23.5126 14.4257 24.3594 15.2424C25.2061 16.0591 25.6937 17.1788 25.7149 18.355C25.7361 19.5312 25.2892 20.6677 24.4725 21.5144C23.6558 22.3612 22.5362 22.8488 21.3599 22.87ZM16.3599 26.56C13.9399 28.18 13.9399 30.82 16.3599 32.43C19.1099 34.27 23.6199 34.27 26.3699 32.43C28.7899 30.81 28.7899 28.17 26.3699 26.56C23.6299 24.73 19.1199 24.73 16.3599 26.56Z" stroke="white" stroke-width="1.5" stroke-linecap="round" stroke-linejoin="round"/>
</svg>
